<svg id="gitee_logo"
    xmlns="http://www.w3.org/2000/svg" viewBox="0 0 25 25">
    <path fill="red" d="M490.81,485.52a11,11,0,1,0,11,11A11,11,0,0,0,490.81,485.52Zm2.66,17.73c-2.69.29-5.44.06-8.16.14-1.5,0-1.78-.77-1.73-2s0-2.62,0-3.92c0-7.28,1.07-8.33,8.47-8.33h4.27c1,0,1.46.46,1.48,1.51s-.54,1.47-1.5,1.47c-2.26,0-4.51,0-6.76,0-3.9.12-3,3.93-2.87,5.28.19,2.43.8,3.24,3.07,2.94.7-.09,1.42,0,2.13,0,1.06-.06,2.53,0,2.49-1.41-.05-1.95-1.76-1.21-2.33-1.19-1.14,0-2.86.64-2.74-1.64.11-2,1.7-1.77,2.72-1.85,5.59-.46,5.32-1.19,5.78,2.27S496.44,502.92,493.47,503.25Z" transform="translate(-479.8 -485.52)"/>
</svg>